<svg width="85" height="85" viewBox="0 0 85 85" fill="none" xmlns="http://www.w3.org/2000/svg">
<g clip-path="url(#clip0_1_758)">
<path d="M42.5943 0.000132528C54.6143 0.000132528 66.632 0.000132528 78.652 0.000132528C82.4914 0.000132528 85 2.49556 85 6.32346C85 28.2691 85 50.2124 85 72.1581C85 75.9248 82.4726 78.4437 78.7015 78.4484C76.6451 78.4508 74.5864 78.4225 72.5301 78.4743C72.1697 78.4838 71.6916 78.7192 71.4772 79.0064C65.4966 86.9918 53.9995 86.9965 48.0425 79.0135C47.8258 78.7239 47.3476 78.479 46.9896 78.4743C43.9934 78.432 40.9949 78.432 37.9987 78.4743C37.6407 78.479 37.1696 78.7357 36.9505 79.0252C30.9535 87.0035 19.4964 86.9941 13.5464 78.9687C13.2426 78.5567 12.9364 78.4343 12.4582 78.439C10.2841 78.4579 8.10997 78.4602 5.9335 78.4437C2.63582 78.4178 0.00945907 75.7953 0.00710358 72.4971C3.71307e-05 50.3184 3.71306e-05 28.1373 0.0047481 5.95856C0.00710358 2.61563 2.64053 0.00719507 6.00888 0.00484089C18.2032 -0.00222165 30.3999 0.000132528 42.5943 0.000132528ZM11.9353 76.3344C8.79541 68.1348 12.7456 61.5243 17.1056 58.6098C19.699 56.8771 22.5491 55.9872 25.663 56.1002C30.129 56.2627 33.7612 58.1884 36.3876 61.3289C38.0458 59.8175 39.6523 58.3555 41.2516 56.8842C41.3482 56.7947 41.433 56.6346 41.433 56.5075C41.4448 54.4594 41.4401 52.4136 41.4401 50.3772C32.8802 49.5792 27.4391 42.1705 28.0892 34.7525C28.7511 27.2027 34.6987 22.0635 41.2139 21.5291C49.2132 20.8723 55.4599 26.4329 56.7225 33.3424C57.3584 36.8219 56.779 40.1365 54.9676 43.1781C52.4048 47.4769 48.5301 49.784 43.5553 50.3584C43.5553 52.3877 43.5529 54.3534 43.56 56.3192C43.56 56.484 43.5836 56.7076 43.6896 56.8041C45.329 58.3132 46.9849 59.8033 48.6125 61.2794C53.4201 55.5305 61.0401 54.8737 66.4482 57.7505C69.2018 59.2148 71.3052 61.3289 72.6879 64.1327C74.6524 68.1183 74.683 72.1863 73.02 76.3438C74.8997 76.3438 76.6616 76.3438 78.4235 76.3438C81.3373 76.3415 82.8895 74.7924 82.8895 71.8873C82.8895 53.2587 82.8895 34.6301 82.8895 16.0038C82.8895 15.6907 82.8895 15.38 82.8895 15.0598H2.11055V16.1733C2.11055 30.8046 2.11055 45.4381 2.11055 60.0694C2.11055 64.1233 2.10113 68.1795 2.11526 72.2334C2.12233 74.564 3.68873 76.2591 5.9547 76.325C7.92153 76.3838 9.89071 76.3368 11.9353 76.3368V76.3344ZM82.8895 12.8422C82.8895 10.7729 82.8895 8.78122 82.8895 6.78959C82.8895 3.57378 81.4268 2.11183 78.2092 2.11183C54.4094 2.11183 30.6096 2.11183 6.8121 2.11183C6.51766 2.11183 6.22323 2.10477 5.93115 2.11654C4.04205 2.206 2.56987 3.41605 2.22597 5.28056C2.08228 6.05037 2.12233 6.85786 2.11762 7.64651C2.10348 9.36741 2.11291 11.0907 2.11291 12.8422H82.8919H82.8895ZM55.5659 72.8008C52.3389 69.5544 53.2882 65.6629 55.2573 63.6689C57.5916 61.303 61.2191 61.1193 63.8054 63.2499C66.6602 65.6017 66.7003 68.9964 63.8996 72.935C66.3328 73.8319 68.2572 75.4045 69.7954 77.4856C72.907 73.4741 73.1331 66.2844 68.2172 61.6278C63.4921 57.1525 56.0441 57.1431 51.359 61.5572C46.4808 66.1549 46.4761 73.2952 49.4958 77.2102C50.4168 76.4097 51.319 75.5151 52.3342 74.7783C53.3447 74.0438 54.4683 73.4646 55.5659 72.8008ZM35.2805 77.5068C38.663 73.0527 38.4674 65.6888 33.2359 61.2064C28.0539 56.7665 20.2548 57.435 15.8619 62.586C11.6055 67.5769 12.6113 74.5829 15.2589 77.4385C16.7546 75.3551 18.6979 73.8437 21.0981 72.9279C18.3516 69.1306 18.321 65.8536 20.9968 63.4241C23.3829 61.2582 26.9586 61.2064 29.3564 63.304C30.6331 64.4199 31.361 65.8395 31.5117 67.5086C31.7001 69.6297 30.8757 71.3977 29.3093 72.8949C31.8203 73.846 33.7706 75.3904 35.2805 77.5044V77.5068ZM52.5368 42.8933C55.9758 38.2555 55.6436 30.8564 50.3273 26.4282C45.1688 22.1318 37.5606 22.8098 33.1087 27.9772C28.9725 32.775 29.7027 39.6186 32.5104 42.825C33.9826 40.6898 35.9918 39.2302 38.3991 38.2555C35.2004 35.068 35.94 31.1883 37.9351 29.1096C40.2105 26.7342 43.8733 26.4588 46.4007 28.4998C47.7386 29.5804 48.5301 30.9764 48.735 32.6926C48.9965 34.882 48.1744 36.6806 46.5915 38.2555C49.053 39.2419 51.0222 40.7157 52.5391 42.8933H52.5368ZM42.4977 59.1371C41.2375 60.2977 39.8289 61.6184 38.3897 62.9062C37.9445 63.304 37.9068 63.6195 38.1848 64.1751C39.5133 66.8423 40.0056 69.6697 39.5086 72.6219C39.3013 73.8531 38.9433 75.0561 38.6488 76.2873H46.3772C46.3937 76.2073 46.4101 76.1743 46.4031 76.1508C44.8084 71.9603 44.9144 67.8523 46.9543 63.8196C47.0367 63.6571 46.959 63.2899 46.82 63.1581C45.3549 61.762 43.8615 60.3942 42.4977 59.1348V59.1371ZM33.8483 79.2253C31.5871 75.8377 28.4684 74.065 24.3463 74.404C20.9733 74.6818 18.4364 76.4003 16.6557 79.2442C20.7636 83.9808 29.7027 83.9572 33.8483 79.2253ZM68.335 79.2065C66.3752 76.2308 63.6829 74.477 60.0555 74.3734C56.1642 74.2627 53.2693 76.0401 51.1517 79.2159C55.7685 84.1667 64.1022 83.8842 68.335 79.2041V79.2065ZM33.879 44.6354C38.8066 49.5627 46.7988 49.153 51.0999 44.6071C49.086 41.4808 46.2311 39.7175 42.5 39.7128C38.7689 39.7104 35.9117 41.469 33.879 44.6354ZM46.6104 33.3895C46.5962 31.0965 44.733 29.2437 42.4671 29.2626C40.1917 29.2814 38.3709 31.1483 38.3826 33.446C38.3944 35.7507 40.2246 37.5658 42.5236 37.554C44.8131 37.5422 46.6245 35.6966 46.6104 33.3895ZM63.8666 68.0736C63.8713 65.7477 62.0906 63.9491 59.7728 63.942C57.4597 63.9326 55.6319 65.7335 55.6154 68.0359C55.5989 70.3359 57.415 72.1557 59.7328 72.1628C62.0647 72.1699 63.8596 70.3948 63.8666 68.0736ZM25.2438 63.9396C22.9142 63.9396 21.1217 65.7382 21.1287 68.0712C21.1334 70.3665 22.8953 72.1392 25.1943 72.1604C27.5286 72.1816 29.3588 70.3972 29.3776 68.0783C29.3988 65.7759 27.5663 63.942 25.2438 63.9396Z" fill="#3C3CAE"/>
<path d="M57.111 10.7398C63.4591 10.7398 69.8048 10.7445 76.1528 10.7375C78.0843 10.7351 79.5141 9.36025 79.5282 7.53577C79.5423 5.66655 78.1102 4.25404 76.1386 4.25169C63.4732 4.24462 50.8101 4.24227 38.1447 4.26581C37.5535 4.26581 36.9081 4.42825 36.3804 4.69427C35.0826 5.34873 34.4513 6.90014 34.8093 8.2891C35.1862 9.75576 36.4629 10.7327 38.0717 10.7351C44.4197 10.7422 50.7654 10.7375 57.1134 10.7375L57.111 10.7398ZM8.71998 10.7398C10.4866 10.7304 11.9894 9.20723 11.9588 7.45808C11.9281 5.72776 10.4536 4.26581 8.72704 4.25169C6.94865 4.23521 5.47412 5.70657 5.47412 7.49574C5.47412 9.28963 6.93217 10.7492 8.71998 10.7398ZM28.2093 7.5546C28.2305 5.75365 26.7936 4.27052 25.0129 4.25169C23.2533 4.23285 21.734 5.73011 21.7246 7.48868C21.7152 9.20959 23.1756 10.7045 24.9045 10.7398C26.6947 10.7775 28.1904 9.33671 28.2093 7.5546ZM16.8252 10.7398C18.6012 10.7469 20.0899 9.26138 20.0852 7.49104C20.0805 5.7254 18.573 4.23521 16.8087 4.25169C15.0727 4.26816 13.6123 5.72776 13.5935 7.46279C13.5746 9.23313 15.0515 10.7327 16.8252 10.7398Z" fill="white"/>
<path d="M57.111 10.7396C50.763 10.7396 44.4173 10.7444 38.0693 10.7373C36.4628 10.7373 35.1862 9.75796 34.8069 8.2913C34.4489 6.89998 35.0802 5.34858 36.3781 4.69647C36.908 4.43045 37.5511 4.26801 38.1423 4.26801C50.8077 4.24447 63.4708 4.24682 76.1363 4.25388C78.1078 4.25388 79.5399 5.66639 79.5258 7.53796C79.5117 9.36245 78.0819 10.7373 76.1504 10.7396C69.8024 10.7491 63.4567 10.742 57.1087 10.742L57.111 10.7396Z" fill="#3C3CAE"/>
<path d="M8.71998 10.7375C6.93217 10.7469 5.47177 9.28735 5.47412 7.49346C5.47412 5.70193 6.94866 4.23293 8.72705 4.2494C10.4536 4.26353 11.9282 5.72783 11.9588 7.4558C11.9894 9.20495 10.4866 10.7281 8.71998 10.7375Z" fill="#3C3CAE"/>
<path d="M28.2093 7.55211C28.1881 9.33658 26.6947 10.775 24.9045 10.7373C23.178 10.6997 21.7176 9.2071 21.7246 7.4862C21.7341 5.72762 23.2533 4.23037 25.0129 4.2492C26.7936 4.26803 28.2305 5.75117 28.2093 7.55211Z" fill="#3C3CAE"/>
<path d="M16.8252 10.7375C15.0515 10.7305 13.5746 9.23085 13.5934 7.4605C13.6123 5.72547 15.0727 4.26824 16.8087 4.2494C18.5729 4.23292 20.0804 5.72312 20.0852 7.48875C20.0899 9.2591 18.5988 10.7446 16.8252 10.7375Z" fill="#3C3CAE"/>
</g>
<defs>
<clipPath id="clip0_1_758">
<rect width="85" height="85" fill="white"/>
</clipPath>
</defs>
</svg>
